<svg xmlns="http://www.w3.org/2000/svg" viewBox="-363.185 28.285 214.4 455.4">
	<path d="M -149.115 362.005 s -55.77 -7 -83.36 -79 h 24.69 c 1 -2.76 -7.88 -4.63 -9.15 -7.26 v -39.49 c 1.27 -2.63 10.11 -4.5 9.15 -7.26 h -24.69 c 27.59 -72 83.36 -79 83.36 -79 c -67.68 -60.71 -80 -121.41 -80 -121.41 c 16.11 102.53 -44.89 101.36 -44.89 101.36 c 11.91 69.71 -36.31 65.64 -36.31 65.64 c 6.9 60.63 -52.57 60.41 -52.57 60.41 s 59.47 -0.22 52.57 60.41 c 0 0 48.22 -4.07 36.31 65.64 c 0 0 61 -1.16 44.88 101.37 c -0.01 0.02 12.33 -60.69 80.01 -121.41 z" stroke="#000000" stroke-width="0.3" fill="none"/>
</svg>