<svg xmlns="http://www.w3.org/2000/svg" viewBox="15.7021 -496.294 480.6 480.6">
	<path d="M 16.006 -17.63 a 1.638 1.638 270 0 0 3.21 0.458 C 36.2 -67.085 46.242 -103.825 53.68 -128.215 c 3.718 -12.195 6.8 -21.318 9.687 -27.34 c 1.442 -3.01 2.862 -5.25 4.185 -6.69 c 1.323 -1.442 2.463 -2.06 3.636 -2.2 c 1.174 -0.134 2.553 0.194 4.28 1.285 c 1.726 1.09 3.73 2.934 6.02 5.467 c 4.574 5.07 10.22 12.948 17.385 23.492 c 14.33 21.087 34.77 52.77 65.573 94.057 a 1.638 1.638 270 0 0 2.75 -1.772 c -23.665 -42.71 -43.042 -75.725 -55.46 -99.098 c -6.207 -11.686 -10.673 -20.992 -13.046 -27.768 c -1.186 -3.39 -1.86 -6.155 -1.986 -8.188 c -0.12 -2.03 0.26 -3.178 0.855 -3.82 c 0.595 -0.64 1.63 -1.056 3.607 -0.977 c 1.98 0.075 4.766 0.716 8.25 1.955 c 6.97 2.48 16.806 7.344 29.7 14.57 C 164.905 -150.78 203 -126.922 255.963 -93.755 a 1.638 1.638 270 0 0 1.864 -2.688 c -46.894 -36.023 -82.6 -60.25 -105.234 -76.768 c -11.317 -8.26 -19.377 -14.63 -23.833 -19.398 c -2.23 -2.385 -3.515 -4.386 -3.942 -5.805 c -0.428 -1.42 -0.252 -2.142 0.672 -3.115 c 1.848 -1.947 7.85 -3.942 17.875 -5.316 c 10.025 -1.373 24.045 -2.373 42.198 -3.513 c 36.306 -2.278 89.202 -5.1 160.386 -12.554 a 1.64 1.64 270 0 0 -0.245 -3.27 c -154.91 4.848 -249.915 -4.55 -249.915 -4.55 a 1.638 1.638 270 0 0 -1.712 1.07 s -2.425 7.132 -10.846 15.702 c -8.423 8.57 -22.76 18.46 -46.536 23.49 a 1.638 1.638 270 0 0 -1.284 1.773 c 6.25 53.747 -0.908 103.183 -19.34 170.583 a 1.638 1.638 270 0 0 -0.06 0.49 z m -0 -476.675 a 1.638 1.638 270 0 0 0.06 0.428 c 18.435 67.4 25.592 116.835 19.34 170.58 a 1.638 1.638 270 0 0 1.285 1.773 c 23.778 5.032 38.115 14.922 46.537 23.49 c 8.423 8.57 10.847 15.703 10.847 15.703 a 1.638 1.638 270 0 0 1.71 1.07 s 95.007 -9.4 249.916 -4.552 a 1.64 1.64 270 0 0 0.245 -3.27 c -71.186 -7.452 -124.08 -10.275 -160.386 -12.554 c -18.154 -1.14 -32.175 -2.14 -42.2 -3.513 c -10.024 -1.37 -16.025 -3.368 -17.875 -5.315 c -0.924 -0.973 -1.1 -1.698 -0.672 -3.115 c 0.428 -1.42 1.713 -3.42 3.942 -5.805 c 4.457 -4.77 12.516 -11.138 23.834 -19.398 c 22.632 -16.52 58.338 -40.746 105.233 -76.767 a 1.638 1.638 270 0 0 -1.865 -2.688 c -52.963 33.166 -91.057 57.027 -116.845 71.482 c -12.894 7.23 -22.73 12.09 -29.7 14.57 c -3.485 1.242 -6.272 1.876 -8.25 1.956 c -1.98 0.075 -3.012 -0.338 -3.606 -0.978 c -0.594 -0.64 -0.983 -1.787 -0.855 -3.82 c 0.12 -2.03 0.8 -4.798 1.986 -8.186 c 2.373 -6.776 6.838 -16.082 13.047 -27.768 c 12.418 -23.373 31.794 -56.39 55.458 -99.098 a 1.638 1.638 270 0 0 -2.75 -1.77 c -30.802 41.286 -51.243 72.968 -65.572 94.056 c -7.163 10.544 -12.81 18.423 -17.386 23.492 c -2.287 2.535 -4.293 4.378 -6.02 5.47 c -1.726 1.09 -3.104 1.42 -4.277 1.283 c -1.173 -0.134 -2.313 -0.757 -3.636 -2.198 c -1.322 -1.442 -2.743 -3.68 -4.186 -6.69 c -2.886 -6.023 -5.967 -15.146 -9.687 -27.34 c -7.437 -24.39 -17.48 -61.13 -34.467 -111.043 a 1.638 1.638 270 0 0 -3.208 0.518 z M 66.943 -257.342 c 0 2.55 0.23 5.02 1.712 7.18 c 1.48 2.157 4.054 3.74 8.128 4.856 c 8.145 2.232 22.776 2.988 50.295 2.75 c 55.038 -0.478 161.43 -5.225 367.28 -12.587 a 1.65 1.65 270 0 0 -0 -3.3 c -205.847 -6.815 -312.252 -11.85 -367.28 -12.738 c -27.513 -0.447 -42.126 0.104 -50.263 2.138 c -4.07 1.017 -6.663 2.472 -8.16 4.582 c -1.494 2.11 -1.71 4.566 -1.71 7.118 z" stroke="#000000" stroke-width="0.3" fill="none"/>
</svg>