<svg xmlns="http://www.w3.org/2000/svg" viewBox="-337.596 -421.435 695.6 118.8">
	<path d="M -337.4957 -362.0281 c 0.0007 32.6987 26.6141 59.3022 59.327 59.3029 L -169.4772 -302.7244 c 0.0035 -0.0007 0.0071 -0 0.0099 -0 c 0.0042 -0 0.0071 -0 0.0099 -0 L 216.0112 -302.7266 c 2.3122 0.0014 4.5509 -0.8103 6.3272 -2.2896 l 59.3029 -49.4204 c 2.2535 -1.8788 3.5582 -4.6598 3.556 -7.5936 c 0.0021 -2.6326 -1.0493 -5.1449 -2.8935 -6.989 c -0.21 -0.21 -0.432 -0.4108 -0.6619 -0.6039 l -59.3029 -49.4204 c -1.7763 -1.4793 -4.015 -2.291 -6.3272 -2.2896 l -29.6391 0 c -0.0035 -0.0007 -0.0085 -0.0014 -0.0156 -0.0014 c -0.0071 0 -0.012 0.0021 -0.0156 0.0014 l -464.5091 -0.0007 C -294.0072 -421.3331 -308.9017 -415.1657 -320.1108 -403.9666 C -331.3212 -392.7632 -337.495 -377.8694 -337.4957 -362.0281 z M 212.4326 -401.5638 l 47.4419 39.535 l -47.4419 39.535 l -16.1927 0 l -0 -79.0701 L 212.4326 -401.5638 z M 176.4741 -401.5645 l 0 79.0701 l -336.056 0.0007 l -0.0021 -79.0722 L 176.4741 -401.5645 z M -278.168 -401.5652 l 98.8189 0.0007 l 0 79.0701 l -98.8168 0.0014 c -21.815 -0.0049 -39.5612 -17.7371 -39.5612 -39.5372 c 0.0007 -10.5564 4.1168 -20.4835 11.5902 -27.9541 C -298.6621 -397.452 -288.7301 -401.5659 -278.168 -401.5652 z M 295.0834 -362.0295 c 0 5.4603 4.4258 9.8861 9.8832 9.8832 L 348.0521 -352.1477 c 5.4582 0.0021 9.8846 -4.4244 9.8832 -9.8832 c -0.0007 -2.7301 -1.1052 -5.2008 -2.8942 -6.9898 c -1.7883 -1.7883 -4.2603 -2.8956 -6.989 -2.8935 l -43.0861 0.0021 C 299.5078 -371.9141 295.0813 -367.4876 295.0834 -362.0295 z M -297.9592 -362.0288 c -0.0014 5.4546 4.4279 9.8839 9.8825 9.8825 l 88.9569 -0 c 5.4603 -0 9.8846 -4.4244 9.8846 -9.8846 c 0.0007 -2.7273 -1.1066 -5.1994 -2.8956 -6.9883 c -1.7883 -1.7883 -4.2603 -2.8956 -6.9876 -2.8949 l -88.9569 0 C -293.5349 -371.9134 -297.9592 -367.4891 -297.9592 -362.0288 z" stroke="#0000FF" stroke-width="0.1" fill="FFFF00"/>
</svg>