<svg fill="#FFFF00" xmlns="http://www.w3.org/2000/svg" viewBox="-283.605 223.291 568.9 272">
	<path d="M 285.2285 438.8503 l -0 -38.2149 l -55.155 -0.0007 l -0 -30.3717 l 55.1557 -0 l -0 -38.2149 L 230.0735 332.0482 l -0 -20.2926 l -30.3717 0 l 0 20.2926 l -50.3403 0 l -0 -20.2926 l -30.3717 0 l 0 20.2926 l -97.3191 0 l -0 -15.6751 l -0 -48.5132 L -156.7677 267.8598 l 0 30.3717 l 148.0667 -0 l 0 18.1415 l -56.3168 0 L -95.3887 316.3737 L -166.8906 316.373 l -15.1872 0 l -22.626 0 c 3.3375 -8.1614 9.3084 -15.1759 17.1678 -19.7233 l 13.1317 -7.5993 L -212.3159 223.3906 l -13.1564 7.6127 c -35.7966 20.7112 -58.0337 59.2428 -58.033 100.5555 l 0 15.1872 l 15.1872 -0 l 60.6132 -0 l 25.6284 -0 l 0 17.614 l -86.2416 0 l 0 30.3717 l 86.2416 -0 l 0 100.4516 l 117.0601 -0 l -0 -40.6572 l 56.3168 -0 l 0 20.3279 l 30.3717 -0 l -0 -20.3279 l -0 -15.6751 l 97.3191 -0 l 0 20.2926 l 30.3717 -0 L 149.3608 438.8503 l 50.3403 -0 l 0 20.2926 l 30.3717 -0 L 230.0727 438.8503 L 285.2285 438.8503 z M -52.5748 400.634 l -0 -30.3717 l 31.1693 -0 l 0 30.3717 L -52.5748 400.634 z M 21.6707 400.6333 l -0 -30.3717 l 97.3191 -0 l 0 30.3717 L 21.6707 400.6333 z M 149.3608 400.634 l -0 -30.3717 l 50.3403 -0 l 0 30.3717 L 149.3608 400.634 z" stroke="#0000FF" stroke-width="0.1" fill="FFFF00"/>
</svg>