<?xml version="1.0" encoding="utf-8"?>
<svg xmlns="http://www.w3.org/2000/svg" viewBox="-22.2971 1.84581 20.23 20.23">
	<path d="M -19 9.86 L -17.58 11.54 C -17.37 11.79 -17.37 12.21 -17.58 12.47 L -19 14.14 C -19.2 14.53 -19 15.01 -18.58 15.15 L -17.62 15.47 C -17.39 15.55 -17.05 15.47 -16.88 15.3 L -15.23 13.66 C -15.11 13.54 -14.88 13.45 -14.72 13.45 H -12.87 C -12.45 13.45 -12.25 13.76 -12.41 14.15 L -13.85 17.5 C -14.09 18.05 -13.79 18.51 -13.19 18.51 H -12.26 C -11.78 18.51 -11.22 18.15 -11.03 17.7 L -9.33 13.76 C -9.26 13.59 -9.05 13.46 -8.87 13.46 H -6.8 C -6.12 13.46 -5.32 12.96 -5.01 12.36 C -4.9 12.14 -4.9 11.89 -5.01 11.67 C -5.31 11.06 -6.12 10.57 -6.8 10.57 H -8.87 C -9.05 10.57 -9.26 10.43 -9.33 10.27 L -11.03 6.33 C -11.22 5.89 -11.78 5.52 -12.26 5.52 H -13.19 C -13.79 5.52 -14.09 5.97 -13.85 6.53 L -12.41 9.88 C -12.24 10.26 -12.45 10.58 -12.87 10.58 H -14.72 C -14.89 10.58 -15.12 10.48 -15.23 10.37 L -16.87 8.7 C -17.04 8.53 -17.38 8.45 -17.61 8.53 L -18.57 8.85 C -19 8.99 -19.2 9.46 -19 9.86 Z A 1 1 90 0 0 -18.968 9.903 M -21.997 11.998 A 1 1 90 0 0 -2.365 11.919 A 1 1 90 0 0 -21.997 11.998" stroke="#000000" stroke-width="0.3" fill="none"/>
</svg>