<?xml version="1.0" encoding="utf-8"?>
<svg xmlns="http://www.w3.org/2000/svg" viewBox="-290.557 284.416 609.1 220.6">
	<path d="M 318.4342 341.5425 L 274.7449 341.5411 l 0 20.26 L 318.4356 361.8011 L 318.4342 341.5425 z M -290.4554 339.1298 l 0 65.8698 a 13.32 13.32 45 0 0 16.144 13.0143 l 108.6158 -23.5509 l 51.5368 20.7918 s 17.5426 -14.0255 23.4427 -19.1534 c 8.1798 -7.1008 18.3961 -12.7873 29.2396 -12.788 l 230.4447 -0.0014 a 21.086 21.086 45 0 0 21.0859 -21.0859 l 0.0007 -60.1939 a 17.516 17.516 45 0 0 -17.5164 -17.5164 l -241.6467 0 a 10.736 10.736 45 0 0 -10.7367 10.7367 l 0 32.2087 L -278.7754 327.4626 a 11.67 11.67 45 0 0 -11.6814 11.6673 z m 237.8361 -20.5931 c 0.0007 -8.4322 8.3248 -15.2643 18.6478 -15.265 l 177.1635 -0.0007 c 10.27 -0 18.6478 6.8335 18.6478 15.265 l 0 8.9237 L -52.6201 327.464 l -0 -8.9237 z m 15.3053 152.8913 l 28.8641 -0 l 32.0376 -14.4787 l 26.2549 -52.2552 l 10.3648 -0.0014 l -29.0791 57.8781 a 4.636 4.636 45 0 1 -2.2253 2.1447 l -34.4467 15.6235 a 4.636 4.636 45 0 1 -1.9184 0.4151 l -31.8354 -0.0014 c -0.3995 0.0007 -30.2903 -3.5829 -30.2903 -3.5829 c -8.2993 -22.9647 4.1564 -50.0716 21.5243 -58.4636 c 7.7407 -3.7427 9.2065 -9.15 7.4607 -14.0269 l 29.4121 0.0007 z m -76.8583 -33.7672 l 0 55.6535 l -51.5092 11.5888 l -0 -87.4224 z M 253.4709 345.9251 l 0 11.4976 l -42.0523 -0.0021 l -0.0014 -11.4961 l 42.0135 -0 z" stroke="#0000FF" stroke-width="0.1" fill="FFFF00"/>
</svg>