<?xml version="1.0" encoding="iso-8859-1"?>
<!-- Uploaded to: SVG Repo, www.svgrepo.com, Generator: SVG Repo Mixer Tools -->
<svg fill="#000000" height="800px" width="800px" version="1.1" id="Layer_1" xmlns="http://www.w3.org/2000/svg" xmlns:xlink="http://www.w3.org/1999/xlink" 
	 viewBox="0 0 512 512" xml:space="preserve">
<g>
	<g>
		<path d="M359.624,145.067l123.55-123.55L461.656,0l-23.268,23.268L422.781,7.66l-21.518,21.517l15.608,15.609l-78.763,78.763
			l-10.758,10.758l-52.199,52.199l-55.107,55.107l-10.092-10.092l14.362-14.362l4.079,4.079l21.517-21.517l-29.674-29.675
			l-21.517,21.517l4.08,4.08L95.933,302.504l-4.079-4.079l-21.517,21.517l29.674,29.675l21.517-21.517l-4.079-4.079l14.362-14.362
			l10.092,10.092l-13.407,13.406l-99.671,99.671L107.998,512l71.294-118.135l45.488,84.396l56.3-56.298l-21.281-39.484
			l31.797-31.797l-26.331-51.208l11.249-11.25l38.77,38.77l50.175-50.176l-38.77-38.77l62.957-62.957L359.624,145.067z
			 M102.029,462.996l-30.167-30.167l78.153-78.154l1.26,1.26l9.582,9.583L102.029,462.996z M153.33,288.142l35.103-35.103
			l10.092,10.092l-35.103,35.103L153.33,288.142z M232.171,427.836l-33.366-61.904l11.376-11.376l33.366,61.904L232.171,427.836z
			 M244.728,354.516l-12.085-22.421l10.025-10.025l11.718,22.788L244.728,354.516z M254.998,266.706l-74.959,74.958l-8.506-8.505
			L275.15,229.542l4.253,4.253l4.253,4.253L254.998,266.706z M315.284,283.959l-17.253-17.253l7.142-7.142l17.253,17.253
			L315.284,283.959z M305.173,216.53l-8.507-8.506l41.44-41.44l8.506,8.507L305.173,216.53z"/>
	</g>
</g>
</svg>