
<svg fill="#ff8800" width="800px" height="800px" viewBox="-7.36 -7.36 46.72 46.72" version="1.1" xmlns="http://www.w3.org/2000/svg" stroke="#ff8800" stroke-width="0.00032" transform="matrix(1, 0, 0, 1, 0, 0)">

<g id="SVGRepo_bgCarrier" stroke-width="0"/>

<g id="SVGRepo_tracerCarrier" stroke-linecap="round" stroke-linejoin="round" stroke="#CCCCCC" stroke-width="1.6640000000000001"> <title>blaster</title> <path d="M16 8.5c3.75 4.688-2.813 2.813-10.312 2.813 3.206 1.068 5.638 1.886 7.383 2.578-2.796 0.9-6.586 1.688-12.071 2.109 5.485 0.422 9.274 1.209 12.071 2.109-1.744 0.693-4.177 1.51-7.383 2.578 7.5 0 14.063-1.875 10.312 2.813 1.229-0.614 2.646-1.224 4.013-1.904 1.583 1.092 2.786 1.904 4.98 1.904 3 0 6.005-3 6.005-7.5s-3.006-7.5-6.005-7.5c-2.209 0-3.411 0.802-5.010 1.904-1.359-0.675-2.762-1.292-3.984-1.903v0zM24.262 11.488c2.071 0 3.75 2.027 3.75 4.511s-1.679 4.511-3.75 4.511c-0.566 0-1.1-0.169-1.582-0.439 1.571-1.093 2.696-2.401 2.696-4.072s-1.125-2.98-2.696-4.072c0.482-0.27 1.016-0.439 1.582-0.439v0z"/> </g>

<g id="SVGRepo_iconCarrier"> <title>blaster</title> <path d="M16 8.5c3.75 4.688-2.813 2.813-10.312 2.813 3.206 1.068 5.638 1.886 7.383 2.578-2.796 0.9-6.586 1.688-12.071 2.109 5.485 0.422 9.274 1.209 12.071 2.109-1.744 0.693-4.177 1.51-7.383 2.578 7.5 0 14.063-1.875 10.312 2.813 1.229-0.614 2.646-1.224 4.013-1.904 1.583 1.092 2.786 1.904 4.98 1.904 3 0 6.005-3 6.005-7.5s-3.006-7.5-6.005-7.5c-2.209 0-3.411 0.802-5.010 1.904-1.359-0.675-2.762-1.292-3.984-1.903v0zM24.262 11.488c2.071 0 3.75 2.027 3.75 4.511s-1.679 4.511-3.75 4.511c-0.566 0-1.1-0.169-1.582-0.439 1.571-1.093 2.696-2.401 2.696-4.072s-1.125-2.98-2.696-4.072c0.482-0.27 1.016-0.439 1.582-0.439v0z"/> </g>

</svg>