<svg xmlns="http://www.w3.org/2000/svg" viewBox="-0.3 -408.687 512.6 305.4">
	<path d="M 221.485 -387.818 L 95.647 -322.827 c -4.985 2.574 -8.34 7.404 -9.083 12.868 H 53.596 C 24.043 -309.958 -0 -285.916 -0 -256.362 s 24.043 53.597 53.596 53.597 h 32.891 c 0.536 5.759 3.956 10.905 9.159 13.592 l 125.838 64.991 c 35.527 18.349 76.794 24.712 116.198 17.918 l 64.055 -11.044 c 22.945 -3.956 40.395 -21.721 44.452 -43.915 c 0.41 0.014 0.82 0.031 1.234 0.031 h 17.07 v 8.305 c 0 7.117 5.769 12.886 12.886 12.886 h 21.734 c 7.117 -0 12.886 -5.769 12.886 -12.886 v -206.224 c -0 -7.117 -5.769 -12.886 -12.886 -12.886 h -21.734 c -7.117 0 -12.886 5.769 -12.886 12.886 v 8.305 h -17.07 c -0.414 0 -0.824 0.017 -1.234 0.031 c -4.059 -22.195 -21.508 -39.959 -44.452 -43.914 l -64.056 -11.045 C 298.28 -412.53 257.014 -406.165 221.485 -387.818 z M 412.935 -189.246 v 18.097 c 0 9.996 -7.15 18.482 -17 20.181 l -64.055 11.044 c -32.122 5.539 -65.762 0.35 -94.721 -14.607 l -78.556 -40.571 l 153.551 18.588 L 412.935 -189.246 z M 34.156 -256.362 c -0 -10.719 8.721 -19.441 19.44 -19.441 h 32.81 v 38.881 h -32.81 v 0.001 C 42.877 -236.921 34.156 -245.643 34.156 -256.362 z M 411.677 -270.263 c 0.631 2.323 -1.844 4.312 -3.954 3.152 c -6.401 -3.522 -15.566 -6.505 -21.118 0.824 c -9.206 12.152 -23.163 6.628 -23.163 6.628 s 10.274 19.517 25.372 18.781 c 7.417 -0.362 13.849 -2.689 19.264 -5.658 c 2.072 -1.137 4.476 0.697 3.995 3.01 c -0.133 0.634 -0.275 1.269 -0.427 1.904 c -7.733 32.03 -39.165 28.994 -58.551 8.846 c -22.463 -23.345 -39.652 -13.257 -39.652 -13.257 s 4.71 -27.618 48.122 -44.926 C 389.51 -302.101 406.426 -289.607 411.677 -270.263 z M 331.88 -372.076 l 64.057 11.045 c 9.85 1.697 16.999 10.186 16.999 20.181 v 19.89 l -100.781 -12.732 l -158.087 19.137 l 83.092 -42.914 C 266.121 -372.427 299.76 -377.616 331.88 -372.076 z" stroke="#000000" stroke-width="0.3" fill="FFFF00"/>
</svg>