<!DOCTYPE svg PUBLIC "-//W3C//DTD SVG 1.1//EN" "http://www.w3.org/Graphics/SVG/1.1/DTD/svg11.dtd">
<!-- Uploaded to: SVG Repo, www.svgrepo.com, Transformed by: SVG Repo Mixer Tools -->
<svg fill="#000000" width="800px" height="800px" viewBox="-6.72 -6.72 37.44 37.44" id="jet-plane" data-name="Flat Color" xmlns="http://www.w3.org/2000/svg" class="icon flat-color" transform="rotate(90)" stroke="#000000" stroke-width="0.8160000000000001">
<g id="SVGRepo_bgCarrier" stroke-width="0"/>
<g id="SVGRepo_tracerCarrier" stroke-linecap="round" stroke-linejoin="round" stroke="#CCCCCC" stroke-width="2.352">
<path id="primary" d="M19,15a1,1,0,0,1-1-1V12a1,1,0,0,1,2,0v2A1,1,0,0,1,19,15ZM6,14V12a1,1,0,0,0-2,0v2a1,1,0,0,0,2,0Z" style="fill: #aa33dd;"/>
<path id="secondary" d="M22,16.47V19a1,1,0,0,1-1,1H15a1,1,0,0,1-1-1V11a1,1,0,0,1,1.64-.77l5.64,4.7A2,2,0,0,1,22,16.47ZM9.43,10.1a1,1,0,0,0-1.07.13l-5.64,4.7A2,2,0,0,0,2,16.47V19a1,1,0,0,0,1,1H9a1,1,0,0,0,1-1V11A1,1,0,0,0,9.43,10.1Z" style="fill: #0c0cbc;"/>
<path id="primary-2" data-name="primary" d="M13.42,2.59a2.05,2.05,0,0,0-2.84,0A8.77,8.77,0,0,0,8,8.83V20a2,2,0,0,0,2,2h4a2,2,0,0,0,2-2V8.83A8.77,8.77,0,0,0,13.42,2.59Z" style="fill: #aa33dd;"/>
</g>
<g id="SVGRepo_iconCarrier">
<path id="primary" d="M19,15a1,1,0,0,1-1-1V12a1,1,0,0,1,2,0v2A1,1,0,0,1,19,15ZM6,14V12a1,1,0,0,0-2,0v2a1,1,0,0,0,2,0Z" style="fill: #aa33dd;"/>
<path id="secondary" d="M22,16.47V19a1,1,0,0,1-1,1H15a1,1,0,0,1-1-1V11a1,1,0,0,1,1.64-.77l5.64,4.7A2,2,0,0,1,22,16.47ZM9.43,10.1a1,1,0,0,0-1.07.13l-5.64,4.7A2,2,0,0,0,2,16.47V19a1,1,0,0,0,1,1H9a1,1,0,0,0,1-1V11A1,1,0,0,0,9.43,10.1Z" style="fill: #0c0cbc;"/>
<path id="primary-2" data-name="primary" d="M13.42,2.59a2.05,2.05,0,0,0-2.84,0A8.77,8.77,0,0,0,8,8.83V20a2,2,0,0,0,2,2h4a2,2,0,0,0,2-2V8.83A8.77,8.77,0,0,0,13.42,2.59Z" style="fill: #aa33dd;"/>
</g>
</svg>