<svg xmlns="http://www.w3.org/2000/svg" viewBox="-484.091 -86.6455 566.2 566.2">
	<path d="M -70.648 280.517 c 1.365 0.299 2.807 0.49 4.335 0.49 H -13.184 c 7.277 -0 13.184 -3.655 13.184 -8.159 V 118.324 c -0 -4.504 -5.907 -8.159 -13.184 -8.159 h -53.129 c -1.528 0 -2.97 0.19 -4.335 0.49 c -0.147 0.033 -0.299 0.054 -0.446 0.087 c -1.322 0.321 -2.518 0.778 -3.59 1.327 c -0.103 0.054 -0.228 0.071 -0.326 0.12 l -67.477 36.605 h -235.501 c -7.277 0 -13.184 3.65 -13.184 8.159 v 77.262 c 0 4.509 5.907 8.159 13.184 8.159 H -142.487 l 67.477 36.605 c 0.098 0.054 0.223 0.071 0.326 0.12 c 1.071 0.555 2.268 1.012 3.59 1.327 C -70.947 280.463 -70.795 280.484 -70.648 280.517 z M -26.369 264.689 h -26.76 V 126.483 h 26.76 V 264.689 z M -128.83 228.084 c -2.41 -1.305 -5.493 -2.023 -8.697 -2.023 h -227.277 v -60.95 H -137.527 c 3.204 -0 6.282 -0.718 8.697 -2.023 l 49.332 -26.766 v 118.523 L -128.83 228.084 z M -472.09 197.168 A 1 1 0 0 0 70.065 195.698 A 1 1 0 0 0 -472.09 197.168" stroke="#000000" stroke-width="12" fill="none"/>
</svg>