<!DOCTYPE svg PUBLIC "-//W3C//DTD SVG 1.1//EN" "http://www.w3.org/Graphics/SVG/1.1/DTD/svg11.dtd">
<!-- Uploaded to: SVG Repo, www.svgrepo.com, Transformed by: SVG Repo Mixer Tools -->
<svg fill="#000000" width="800px" height="800px" viewBox="0 0 24.00 24.00" id="torch-top-left" data-name="Flat Color" xmlns="http://www.w3.org/2000/svg" class="icon flat-color" transform="rotate(-45)matrix(-1, 0, 0, -1, 0, 0)" stroke="#000000" stroke-width="0.24000000000000005">
<g id="SVGRepo_bgCarrier" stroke-width="0"/>
<g id="SVGRepo_tracerCarrier" stroke-linecap="round" stroke-linejoin="round"/>
<g id="SVGRepo_iconCarrier">
<path id="secondary" d="M8.24,4A3,3,0,0,0,3.12,6.12,3,3,0,0,0,4,8.24a1,1,0,0,0,.71.3,1,1,0,0,0,.7-.3L8.24,5.41A1,1,0,0,0,8.24,4Z" style="fill: #00FFFF;"/>
<path id="primary" d="M21.41,15.76,12.59,6.94a4.28,4.28,0,0,0-.81-3.65l-.71-.7a2,2,0,0,0-2.83,0L2.59,8.24a2,2,0,0,0,0,2.83l.7.71a4.28,4.28,0,0,0,3.65.81l8.82,8.82a2,2,0,0,0,1.41.59,2,2,0,0,0,1.42-.59l2.82-2.82A2,2,0,0,0,22,17.17,2,2,0,0,0,21.41,15.76Z" style="fill: #00FFFF000000;"/>
</g>
</svg>