<?xml version="1.0" encoding="iso-8859-1"?>
<!-- Uploaded to: SVG Repo, www.svgrepo.com, Generator: SVG Repo Mixer Tools -->
<svg fill="#000000" height="800px" width="800px" version="1.1" id="Layer_1" xmlns="http://www.w3.org/2000/svg" xmlns:xlink="http://www.w3.org/1999/xlink" 
	 viewBox="0 0 512 512" xml:space="preserve">
<g>
	<g>
		<path d="M390.363,2.553c-7.735-4.876-17.961-2.558-22.837,5.178c-42.015,66.685-82.538,131.253-123.02,192.784
			c-5.026,7.639-2.907,17.907,4.731,22.933c7.646,5.029,17.91,2.904,22.934-4.732C313.01,156.644,353.884,91.503,395.541,25.39
			C400.417,17.654,398.099,7.43,390.363,2.553z"/>
	</g>
</g>
<g>
	<g>
		<path d="M509.302,121.412c-5.001-7.656-15.262-9.807-22.917-4.808c-8.687,5.674-191.972,122.545-191.972,122.545
			c-7.975,4.379-10.926,14.383-6.589,22.394c4.354,8.043,14.401,11.032,22.444,6.68c0,0,186.022-118.535,194.228-123.893
			C512.152,139.328,514.304,129.067,509.302,121.412z"/>
	</g>
</g>
<g>
	<g>
		<path d="M456.474,48.458c-6.466-6.466-16.95-6.466-23.416,0l-57.125,57.125c-6.466,6.466-6.466,16.951,0,23.416
			c6.467,6.467,16.95,6.466,23.416,0l57.125-57.125C462.94,65.408,462.94,54.924,456.474,48.458z"/>
	</g>
</g>
<g>
	<g>
		<path d="M292.702,311.336l-7.261-7.261c9.125-40.7-21.896-79.093-63.297-79.093c-4.887,0-9.641,0.551-14.218,1.578l-7.261-7.261
			c-6.143-6.143-16.102-6.143-22.245,0l-23.08,23.08c-6.124,6.124-6.14,16.038-0.053,22.185l-11.085,11.085
			c-4.953,4.954-4.953,12.984,0,17.937l0.096,0.095l73.03,75.007l0.096,0.096c4.953,4.953,12.984,4.953,17.937,0l12.079-12.068
			c6.147,6.085,16.062,6.07,22.185-0.053l23.08-23.081C298.844,327.438,298.844,317.479,292.702,311.336z"/>
	</g>
</g>
<g>
	<g>
		<path d="M196.111,419.677l-14.883-14.883l12.497-12.43l-72.791-75.252L7.759,430.217c-10.345,10.345-10.345,27.118,0,37.465
			l36.559,36.558c10.345,10.345,27.118,10.345,37.465,0l38.145-38.145l71.96-26.945C199.956,436.13,202.196,425.763,196.111,419.677
			z"/>
	</g>
</g>
</svg>