<svg xmlns="http://www.w3.org/2000/svg" viewBox="-33.7995 -9.01 43.6 42.02">
	<path d="M -21.69 9.03 L -19.73 11.36 C -19.43 11.71 -19.43 12.29 -19.73 12.64 L -21.69 14.97 C -21.96 15.51 -21.69 16.17 -21.11 16.37 L -19.78 16.81 C -19.46 16.92 -18.99 16.81 -18.75 16.57 L -16.47 14.3 C -16.31 14.13 -15.99 14 -15.76 14 H -12.91 C -12.49 14 -12.29 14.31 -12.45 14.7 L -14.57 19.61 C -14.9 20.38 -14.49 21.01 -13.65 21.01 H -12.36 C -11.69 21.01 -10.92 20.51 -10.66 19.89 L -8.25 14.3 C -8.18 14.14 -7.97 14 -7.79 14 H -4.79 C -3.85 14 -2.74 13.31 -2.31 12.47 C -2.16 12.17 -2.16 11.82 -2.31 11.52 C -2.74 10.68 -3.86 9.99 -4.8 9.99 H -7.8 C -7.98 9.99 -8.19 9.85 -8.26 9.69 L -10.67 4.11 C -10.92 3.49 -11.69 2.99 -12.36 2.99 H -13.65 C -14.49 2.99 -14.9 3.62 -14.57 4.39 L -12.45 9.3 C -12.28 9.68 -12.49 10 -12.91 10 H -15.76 C -15.99 10 -16.31 9.87 -16.47 9.71 L -18.75 7.44 C -18.99 7.2 -19.45 7.09 -19.78 7.2 L -21.11 7.64 C -21.69 7.82 -21.97 8.48 -21.69 9.03 Z" fill="FFFFFF"/>
</svg>