<svg xmlns="http://www.w3.org/2000/svg" viewBox="-84.3 3.82096 74.34 23.28">
	<path d="M -43.806 19.971 c 0.264 0.578 1.416 1.666 2.313 2.049 c 0.732 0.418 1.602 0.635 2.616 0.648 c 1.545 0.041 3.045 0.018 4.503 -0.07 c 1.461 -0.088 3.123 -0.187 4.989 -0.295 c -5.559 -1.176 -9.309 -2.771 -11.256 -4.786 l -1.458 -0.224 c -1.827 0.947 -2.394 1.84 -1.707 2.678 h 0 z M -40.641 13.42 c 1.947 -2.028 5.697 -3.631 11.256 -4.807 c -1.866 -0.095 -3.528 -0.189 -4.989 -0.284 s -2.958 -0.115 -4.503 -0.061 c -1.056 0.027 -1.926 0.243 -2.616 0.649 c -0.756 0.306 -2.169 1.511 -2.313 2.028 c -0.687 0.838 -0.12 1.73 1.704 2.678 l 1.461 -0.203 z M -51.045 14.018 c -1.218 -0.155 -3.111 -0.125 -4.734 0.092 v 0.941 h 8.934 c -1.584 -0.393 -2.982 -0.878 -4.2 -1.033 z M -55.779 16.053 v 0.908 c 0.444 0.054 1.314 0.095 1.662 0.122 s 0.72 0.041 1.125 0.041 c 1.095 0 2.088 -0.079 2.982 -0.235 s 1.944 -0.564 3.165 -0.836 h -8.934 z M -25.962 26.568 c -2.394 0.203 -4.827 0.271 -7.302 0.203 c -4.95 -0.135 -9.918 -0.838 -13.812 -2.109 l -6.39 1.116 l -5.598 -1.644 c 3.33 -2.326 -0.132 -3.063 -4.989 -3.063 h -19.947 v -1.047 h 17.892 v -0.946 h -17.892 v -1.088 h 17.892 v -0.938 h -17.892 v -1.034 h 17.892 v -0.938 h -17.892 v -1.033 h 17.838 l 0.054 -0.939 h -17.892 v -1.131 h 17.892 v -0.943 h -17.892 v -1.077 h 19.947 c 4.875 0 8.565 -0.867 4.989 -3.198 l 5.598 -1.683 l 6.39 1.176 c 3.894 -1.271 8.853 -1.951 13.839 -2.1 c 2.499 -0.075 4.941 -0.014 7.335 0.182 c 12.168 0.997 14.094 4.496 14.421 5.182 c 1.623 3.905 1.623 7.818 0 11.737 c -0.345 0.669 -2.457 4.213 -14.481 5.232 z" stroke="#000000" stroke-width="0.3" fill="FFFF00"/>
</svg>