<svg xmlns="http://www.w3.org/2000/svg" viewBox="-285.773 275.869 612.3 221.4">
	<path d="M 151.7147 356.8704 l 174.7261 -0 L 326.4401 326.4401 l -32.9059 0 L 293.5349 304.3678 l -30.4303 -0.0007 l -0.0007 22.0738 l -111.3877 0 l -15.2141 0 l -73.8205 0 l -77.9331 0 l -0 -14.2722 l 20.3109 -0 l 0 5.7686 l 30.4296 -0 l 0.0007 -41.9661 l -30.4296 0 l 0 5.77 L -146.0678 281.7375 l -0 -5.7686 l -30.4296 0 l -0.0007 41.9661 l 30.4296 -0 l -0 -5.7686 l 20.3109 -0 l 0 14.2722 l -18.9597 -0.0007 l -140.9561 0 L -285.6726 438.4048 l 133.9465 -33.1216 l -27.5121 91.8419 l 79.6188 0.0014 l 12.8715 -42.9673 l 44.9677 -0 l 17.5907 -54.8284 l 15.9092 -0.0007 l 0 54.8291 l 70.9589 -0.0007 l -0 -54.8291 l 89.0346 -0 L 151.7147 356.8704 z M -255.2422 399.533 l -0 -42.6626 l 110.5257 -0.0007 l 0 1.7819 l -0.0007 13.5517 L -255.2422 399.533 z M -95.3265 312.1678 l 49.6431 -0 l 0 14.2722 l -49.6431 0 L -95.3265 312.1678 z M -138.356 466.6954 l 20.1794 -67.3661 l 16.0881 0 l -20.1794 67.3661 L -138.356 466.6954 z M -77.6318 423.7295 l 7.3087 -24.3994 l 14.1775 -0 l -7.8277 24.3994 L -77.6318 423.7295 z M -8.2788 368.9004 l -106.0073 -0.0007 l -0.0007 -12.0286 L 32.2497 356.8711 l 0 6.0147 l 0 6.0147 L -8.2788 368.9004 z M 22.1501 423.7288 l -0 -24.3994 l 10.1003 -0 l 0 24.3994 L 22.1501 423.7288 z M 62.6801 368.8997 l -0.0007 -12.03 l 58.605 -0 l -0.0007 12.03 L 62.6801 368.8997 z" stroke="#0000FF" stroke-width="0.1" fill="FFFF00"/>
</svg>