<svg xmlns="http://www.w3.org/2000/svg" viewBox="2180 740 7240 2920">
	<path d="M2181 2200 l0 -1460 904 0 905 0 0 155 0 155 438 -2 437 -3 3 -77 3
-78 234 0 235 0 0 135 0 135 750 0 750 0 0 -75 0 -75 240 0 240 0 0 75 0 75
390 0 390 0 0 -75 0 -75 235 0 235 0 0 75 0 75 425 0 425 0 0 145 0 145 -425
0 -425 0 0 130 0 130 425 0 425 0 0 140 0 140 -425 0 -425 0 0 205 0 205 425
0 425 0 0 140 0 140 -425 0 -425 0 0 140 0 140 425 0 425 0 0 140 0 140 -425
0 -424 0 -3 73 -3 72 -232 3 -233 2 0 -75 0 -75 -390 0 -389 0 -3 73 -3 72
-235 0 -235 0 -3 -72 -3 -73 -749 0 -750 0 0 130 0 130 -235 0 -235 0 0 -75 0
-75 -440 0 -440 0 0 155 0 155 -905 0 -905 0 1 -1460z m2489 620 l0 -140 -240
0 -240 0 0 140 0 140 240 0 240 0 0 -140z m2170 0 l0 -140 -750 0 -750 0 0
140 0 140 750 0 750 0 0 -140z m1255 0 l0 -135 -387 -3 -388 -2 0 140 0 140
388 -2 387 -3 0 -135z m-1255 -625 l0 -205 -750 0 -750 0 0 205 0 205 750 0
750 0 0 -205z m1260 0 l0 -205 -390 0 -390 0 0 205 0 205 390 0 390 0 0 -205z
m-3232 8 l-3 -88 -437 -3 -438 -2 0 90 0 90 440 0 441 0 -3 -87z m-198 -623
l0 -130 -240 0 -240 0 0 130 0 130 240 0 240 0 0 -130z m2170 0 l0 -130 -750
0 -750 0 0 130 0 130 750 0 750 0 0 -130z m1260 0 l0 -130 -390 0 -390 0 0
130 0 130 390 0 390 0 0 -130z" stroke="#000000" stroke-width="12" fill="FFFFFF"/>
</svg>